<?xml version="1.0" encoding="UTF-8"?>
<svg xmlns="http://www.w3.org/2000/svg" xmlns:xlink="http://www.w3.org/1999/xlink" width="88px" height="47px" viewBox="0 0 88 47" version="1.1">
<defs>
<linearGradient id="linear0" gradientUnits="userSpaceOnUse" x1="47.200001" y1="99.599998" x2="311.899994" y2="99.599998" gradientTransform="matrix(0.244989,0,0,-0.245936,0,48.007549)">
<stop offset="0" style="stop-color:rgb(93.333333%,92.54902%,91.764706%);stop-opacity:1;"/>
<stop offset="0" style="stop-color:rgb(87.843137%,86.666667%,86.666667%);stop-opacity:1;"/>
<stop offset="0" style="stop-color:rgb(73.72549%,71.372549%,74.509804%);stop-opacity:1;"/>
<stop offset="0" style="stop-color:rgb(50.980392%,46.666667%,54.117647%);stop-opacity:1;"/>
<stop offset="0" style="stop-color:rgb(20.392157%,12.54902%,26.666667%);stop-opacity:1;"/>
<stop offset="0" style="stop-color:rgb(17.647059%,9.803922%,24.313725%);stop-opacity:1;"/>
<stop offset="0" style="stop-color:rgb(21.960784%,11.764706%,29.803922%);stop-opacity:1;"/>
<stop offset="0.2" style="stop-color:rgb(32.941176%,18.039216%,45.098039%);stop-opacity:1;"/>
<stop offset="0.3" style="stop-color:rgb(40.784314%,21.960784%,55.294118%);stop-opacity:1;"/>
<stop offset="0.5" style="stop-color:rgb(50.196078%,33.333333%,61.960784%);stop-opacity:1;"/>
<stop offset="0.6" style="stop-color:rgb(54.901961%,38.823529%,65.098039%);stop-opacity:1;"/>
<stop offset="0.7" style="stop-color:rgb(67.45098%,54.117647%,74.117647%);stop-opacity:1;"/>
<stop offset="0.9" style="stop-color:rgb(87.45098%,78.823529%,88.627451%);stop-opacity:1;"/>
<stop offset="0.9" style="stop-color:rgb(90.588235%,82.352941%,90.980392%);stop-opacity:1;"/>
</linearGradient>
<linearGradient id="linear1" gradientUnits="userSpaceOnUse" x1="0" y1="50.400002" x2="80.400002" y2="50.400002" gradientTransform="matrix(0.244989,0,0,-0.245936,0,48.007549)">
<stop offset="0" style="stop-color:rgb(93.333333%,92.54902%,91.764706%);stop-opacity:1;"/>
<stop offset="0" style="stop-color:rgb(87.843137%,86.666667%,86.666667%);stop-opacity:1;"/>
<stop offset="0" style="stop-color:rgb(73.72549%,71.372549%,74.509804%);stop-opacity:1;"/>
<stop offset="0" style="stop-color:rgb(50.980392%,46.666667%,54.117647%);stop-opacity:1;"/>
<stop offset="0" style="stop-color:rgb(20.392157%,12.54902%,26.666667%);stop-opacity:1;"/>
<stop offset="0" style="stop-color:rgb(17.647059%,9.803922%,24.313725%);stop-opacity:1;"/>
<stop offset="0" style="stop-color:rgb(21.960784%,11.764706%,29.803922%);stop-opacity:1;"/>
<stop offset="0.2" style="stop-color:rgb(32.941176%,18.039216%,45.098039%);stop-opacity:1;"/>
<stop offset="0.3" style="stop-color:rgb(40.784314%,21.960784%,55.294118%);stop-opacity:1;"/>
<stop offset="0.5" style="stop-color:rgb(50.196078%,33.333333%,61.960784%);stop-opacity:1;"/>
<stop offset="0.6" style="stop-color:rgb(54.901961%,38.823529%,65.098039%);stop-opacity:1;"/>
<stop offset="0.7" style="stop-color:rgb(67.45098%,54.117647%,74.117647%);stop-opacity:1;"/>
<stop offset="0.9" style="stop-color:rgb(87.45098%,78.823529%,88.627451%);stop-opacity:1;"/>
<stop offset="0.9" style="stop-color:rgb(90.588235%,82.352941%,90.980392%);stop-opacity:1;"/>
</linearGradient>
<linearGradient id="linear2" gradientUnits="userSpaceOnUse" x1="278.700012" y1="50.400002" x2="359.200012" y2="50.400002" gradientTransform="matrix(0.244989,0,0,-0.245936,0,48.007549)">
<stop offset="0" style="stop-color:rgb(93.333333%,92.54902%,91.764706%);stop-opacity:1;"/>
<stop offset="0" style="stop-color:rgb(87.843137%,86.666667%,86.666667%);stop-opacity:1;"/>
<stop offset="0" style="stop-color:rgb(73.72549%,71.372549%,74.509804%);stop-opacity:1;"/>
<stop offset="0" style="stop-color:rgb(50.980392%,46.666667%,54.117647%);stop-opacity:1;"/>
<stop offset="0" style="stop-color:rgb(20.392157%,12.54902%,26.666667%);stop-opacity:1;"/>
<stop offset="0" style="stop-color:rgb(17.647059%,9.803922%,24.313725%);stop-opacity:1;"/>
<stop offset="0" style="stop-color:rgb(21.960784%,11.764706%,29.803922%);stop-opacity:1;"/>
<stop offset="0.2" style="stop-color:rgb(32.941176%,18.039216%,45.098039%);stop-opacity:1;"/>
<stop offset="0.3" style="stop-color:rgb(40.784314%,21.960784%,55.294118%);stop-opacity:1;"/>
<stop offset="0.5" style="stop-color:rgb(50.196078%,33.333333%,61.960784%);stop-opacity:1;"/>
<stop offset="0.6" style="stop-color:rgb(54.901961%,38.823529%,65.098039%);stop-opacity:1;"/>
<stop offset="0.7" style="stop-color:rgb(67.45098%,54.117647%,74.117647%);stop-opacity:1;"/>
<stop offset="0.9" style="stop-color:rgb(87.45098%,78.823529%,88.627451%);stop-opacity:1;"/>
<stop offset="0.9" style="stop-color:rgb(90.588235%,82.352941%,90.980392%);stop-opacity:1;"/>
</linearGradient>
<linearGradient id="linear3" gradientUnits="userSpaceOnUse" x1="96.900002" y1="54.400002" x2="144.399994" y2="54.400002" gradientTransform="matrix(0.244989,0,0,-0.245936,0,48.007549)">
<stop offset="0" style="stop-color:rgb(93.333333%,92.54902%,91.764706%);stop-opacity:1;"/>
<stop offset="0" style="stop-color:rgb(87.843137%,86.666667%,86.666667%);stop-opacity:1;"/>
<stop offset="0" style="stop-color:rgb(73.72549%,71.372549%,74.509804%);stop-opacity:1;"/>
<stop offset="0" style="stop-color:rgb(50.980392%,46.666667%,54.117647%);stop-opacity:1;"/>
<stop offset="0" style="stop-color:rgb(20.392157%,12.54902%,26.666667%);stop-opacity:1;"/>
<stop offset="0" style="stop-color:rgb(17.647059%,9.803922%,24.313725%);stop-opacity:1;"/>
<stop offset="0" style="stop-color:rgb(21.960784%,11.764706%,29.803922%);stop-opacity:1;"/>
<stop offset="0.2" style="stop-color:rgb(32.941176%,18.039216%,45.098039%);stop-opacity:1;"/>
<stop offset="0.3" style="stop-color:rgb(40.784314%,21.960784%,55.294118%);stop-opacity:1;"/>
<stop offset="0.5" style="stop-color:rgb(50.196078%,33.333333%,61.960784%);stop-opacity:1;"/>
<stop offset="0.6" style="stop-color:rgb(54.901961%,38.823529%,65.098039%);stop-opacity:1;"/>
<stop offset="0.7" style="stop-color:rgb(67.45098%,54.117647%,74.117647%);stop-opacity:1;"/>
<stop offset="0.9" style="stop-color:rgb(87.45098%,78.823529%,88.627451%);stop-opacity:1;"/>
<stop offset="0.9" style="stop-color:rgb(90.588235%,82.352941%,90.980392%);stop-opacity:1;"/>
</linearGradient>
<linearGradient id="linear4" gradientUnits="userSpaceOnUse" x1="214.899994" y1="52.5" x2="262.200012" y2="52.5" gradientTransform="matrix(0.244989,0,0,-0.245936,0,48.007549)">
<stop offset="0" style="stop-color:rgb(93.333333%,92.54902%,91.764706%);stop-opacity:1;"/>
<stop offset="0" style="stop-color:rgb(87.843137%,86.666667%,86.666667%);stop-opacity:1;"/>
<stop offset="0" style="stop-color:rgb(73.72549%,71.372549%,74.509804%);stop-opacity:1;"/>
<stop offset="0" style="stop-color:rgb(50.980392%,46.666667%,54.117647%);stop-opacity:1;"/>
<stop offset="0" style="stop-color:rgb(20.392157%,12.54902%,26.666667%);stop-opacity:1;"/>
<stop offset="0" style="stop-color:rgb(17.647059%,9.803922%,24.313725%);stop-opacity:1;"/>
<stop offset="0" style="stop-color:rgb(21.960784%,11.764706%,29.803922%);stop-opacity:1;"/>
<stop offset="0.2" style="stop-color:rgb(32.941176%,18.039216%,45.098039%);stop-opacity:1;"/>
<stop offset="0.3" style="stop-color:rgb(40.784314%,21.960784%,55.294118%);stop-opacity:1;"/>
<stop offset="0.5" style="stop-color:rgb(50.196078%,33.333333%,61.960784%);stop-opacity:1;"/>
<stop offset="0.6" style="stop-color:rgb(54.901961%,38.823529%,65.098039%);stop-opacity:1;"/>
<stop offset="0.7" style="stop-color:rgb(67.45098%,54.117647%,74.117647%);stop-opacity:1;"/>
<stop offset="0.9" style="stop-color:rgb(87.45098%,78.823529%,88.627451%);stop-opacity:1;"/>
<stop offset="0.9" style="stop-color:rgb(90.588235%,82.352941%,90.980392%);stop-opacity:1;"/>
</linearGradient>
</defs>
<g id="surface1">
<path style=" stroke:none;fill-rule:nonzero;fill:url(#linear0);" d="M 23.617188 34.011719 C 23.25 35.859375 22.90625 37.726562 22.929688 39.597656 C 22.929688 42.082031 24.546875 43.753906 26.949219 44.292969 C 32.851562 45.597656 37.554688 41.761719 37.753906 35.441406 C 37.875 31.554688 36.847656 27.890625 35.546875 24.25 C 34.296875 20.757812 32.804688 17.289062 32.117188 13.675781 C 30.917969 7.355469 35.816406 1.058594 42.210938 0.125 C 48.679688 -0.8125 54.828125 3.691406 55.929688 10.085938 C 56.421875 12.9375 55.785156 15.59375 54.851562 18.25 C 53.457031 22.234375 51.9375 26.167969 50.785156 30.203125 C 50.003906 32.933594 49.953125 35.785156 50.859375 38.589844 C 52.378906 43.285156 56.910156 45.644531 61.613281 44.121094 C 63.769531 43.433594 65.191406 41.835938 65.09375 39.472656 C 65.019531 37.210938 64.578125 34.949219 64.039062 32.757812 C 63.304688 29.757812 62.398438 26.808594 62.714844 23.660156 C 63.011719 20.804688 64.234375 18.496094 66.929688 17.265625 C 69.285156 16.207031 71.585938 16.550781 73.667969 18.101562 C 75.382812 19.378906 76.316406 21.152344 76.414062 23.316406 C 76.460938 24.324219 76.019531 25.011719 75.015625 25.085938 C 74.011719 25.160156 73.546875 24.519531 73.398438 23.511719 C 73.054688 20.953125 71.609375 19.527344 69.453125 19.480469 C 67.519531 19.453125 65.609375 21.027344 65.460938 23.363281 C 65.316406 25.503906 65.582031 27.695312 65.925781 29.832031 C 66.292969 32.121094 67.101562 34.355469 67.445312 36.671875 C 67.933594 39.964844 67.519531 43.164062 64.507812 45.203125 C 61.296875 47.367188 57.742188 47.441406 54.316406 45.84375 C 49.609375 43.652344 48.019531 39.472656 47.945312 34.601562 C 47.894531 30.570312 48.996094 26.757812 50.417969 23.019531 C 51.449219 20.292969 52.621094 17.558594 53.332031 14.757812 C 54.707031 9.371094 51.59375 4.230469 46.351562 2.902344 C 41.328125 1.625 36.207031 4.550781 34.714844 9.617188 C 33.929688 12.222656 34.445312 14.734375 35.328125 17.214844 C 36.480469 20.390625 37.800781 23.511719 38.804688 26.707031 C 40.03125 30.644531 40.644531 34.652344 39.515625 38.761719 C 37.851562 44.808594 32.335938 48.058594 26.3125 46.554688 C 22.417969 45.574219 20.113281 42.523438 20.457031 38.21875 C 20.652344 35.660156 21.511719 33.179688 21.902344 30.644531 C 22.269531 28.257812 22.585938 25.847656 22.539062 23.441406 C 22.515625 21.765625 21.460938 20.363281 19.722656 19.75 C 18.277344 19.257812 16.878906 19.578125 15.898438 20.683594 C 15.261719 21.421875 14.847656 22.453125 14.625 23.414062 C 14.40625 24.421875 14.085938 25.183594 12.984375 25.136719 C 11.785156 25.0625 11.515625 24.175781 11.5625 23.117188 C 11.710938 20.242188 14.011719 17.558594 16.929688 16.898438 C 19.355469 16.332031 21.851562 17.144531 23.394531 19.011719 C 24.941406 20.882812 24.253906 20.339844 24.496094 21.101562 C 24.742188 21.863281 24.496094 21.125 24.496094 21.152344 C 25.308594 23.660156 25.40625 26.363281 24.792969 28.921875 L 23.589844 34.011719 Z M 23.617188 34.011719 "/>
<path style=" stroke:none;fill-rule:nonzero;fill:url(#linear1);" d="M 19.304688 38.242188 C 17.640625 37.0625 16.144531 35.957031 14.601562 34.875 C 12.296875 33.277344 9.871094 31.921875 6.957031 32.023438 C 4.042969 32.121094 2.179688 34.996094 3.429688 37.433594 C 3.96875 38.464844 4.753906 39.179688 6.003906 39.054688 C 7.054688 38.957031 7.839844 39.347656 7.914062 40.433594 C 7.988281 41.613281 7.128906 42.03125 6.074219 42.128906 C 2.378906 42.476562 -0.761719 38.464844 0.0976562 34.503906 C 0.785156 31.382812 3.453125 29.121094 6.664062 29.046875 C 9.75 28.949219 12.472656 30.101562 14.96875 31.800781 C 15.996094 32.488281 16.976562 33.25 17.957031 34.011719 C 19.257812 34.996094 19.671875 36.398438 19.257812 38.242188 Z M 19.304688 38.242188 "/>
<path style=" stroke:none;fill-rule:nonzero;fill:url(#linear2);" d="M 68.71875 38.171875 C 67.984375 35.539062 67.984375 35.5625 69.847656 34.113281 C 72.835938 31.777344 75.847656 29.539062 79.792969 29.121094 C 83.910156 28.675781 87.238281 31.011719 87.878906 34.847656 C 88.441406 38.144531 86.261719 41.515625 83.125 42.03125 C 82.460938 42.152344 81.652344 42.179688 81.117188 41.882812 C 80.625 41.613281 80.039062 40.828125 80.109375 40.335938 C 80.160156 39.84375 80.921875 39.179688 81.457031 39.082031 C 83.910156 38.660156 85.085938 37.605469 84.9375 35.613281 C 84.792969 33.570312 83.101562 32.023438 80.921875 31.972656 C 78.445312 31.921875 76.265625 32.882812 74.28125 34.210938 C 72.445312 35.441406 70.632812 36.769531 68.71875 38.121094 Z M 68.71875 38.171875 "/>
<path style=" stroke:none;fill-rule:nonzero;fill:url(#linear3);" d="M 23.863281 38.023438 C 32.191406 40.1875 35.496094 37.113281 34.617188 28.1875 C 35.914062 31.285156 35.425781 36.054688 34.027344 38.121094 C 31.996094 41.171875 28.957031 41.269531 25.820312 40.925781 C 23.667969 40.679688 23.519531 40.40625 23.835938 38.023438 Z M 23.863281 38.023438 "/>
<path style=" stroke:none;fill-rule:nonzero;fill:url(#linear4);" d="M 64.113281 37.949219 C 64.429688 40.382812 64.308594 40.628906 62.128906 40.898438 C 60.902344 41.046875 59.652344 41.074219 58.429688 40.898438 C 55.148438 40.484375 53.113281 38.121094 52.699219 34.136719 C 52.523438 32.488281 52.671875 30.816406 52.917969 29.144531 C 53.1875 32.144531 53.066406 35.269531 55.585938 37.457031 C 58.183594 39.71875 61.125 38.933594 64.113281 37.925781 Z M 64.113281 37.949219 "/>
</g>
</svg>
