<?xml version="1.0" encoding="UTF-8"?>
<svg xmlns="http://www.w3.org/2000/svg" version="1.1" xmlns:xlink="http://www.w3.org/1999/xlink" viewBox="0 0 359.2 191.1">
  <defs>
    <style>
      .cls-1 {
        fill: url(#linear-gradient-2);
      }

      .cls-2 {
        fill: url(#linear-gradient-4);
      }

      .cls-3 {
        fill: url(#linear-gradient-3);
      }

      .cls-4 {
        fill: url(#linear-gradient-5);
      }

      .cls-5 {
        fill: url(#linear-gradient);
      }
    </style>
    <linearGradient id="linear-gradient" x1="47.2" y1="99.6" x2="311.9" y2="99.6" gradientTransform="translate(0 195.2) scale(1 -1)" gradientUnits="userSpaceOnUse">
      <stop offset="0" stop-color="#eeecea"/>
      <stop offset="0" stop-color="#e0dddd"/>
      <stop offset="0" stop-color="#bcb6be"/>
      <stop offset="0" stop-color="#82778a"/>
      <stop offset="0" stop-color="#342044"/>
      <stop offset="0" stop-color="#2d193e"/>
      <stop offset="0" stop-color="#381e4c"/>
      <stop offset=".2" stop-color="#542e73"/>
      <stop offset=".3" stop-color="#68388d"/>
      <stop offset=".5" stop-color="#80559e"/>
      <stop offset=".6" stop-color="#8c63a6"/>
      <stop offset=".7" stop-color="#ac8abd"/>
      <stop offset=".9" stop-color="#dfc9e2"/>
      <stop offset=".9" stop-color="#e7d2e8"/>
    </linearGradient>
    <linearGradient id="linear-gradient-2" x1="0" y1="50.4" x2="80.4" y2="50.4" gradientTransform="translate(0 195.2) scale(1 -1)" gradientUnits="userSpaceOnUse">
      <stop offset="0" stop-color="#eeecea"/>
      <stop offset="0" stop-color="#e0dddd"/>
      <stop offset="0" stop-color="#bcb6be"/>
      <stop offset="0" stop-color="#82778a"/>
      <stop offset="0" stop-color="#342044"/>
      <stop offset="0" stop-color="#2d193e"/>
      <stop offset="0" stop-color="#381e4c"/>
      <stop offset=".2" stop-color="#542e73"/>
      <stop offset=".3" stop-color="#68388d"/>
      <stop offset=".5" stop-color="#80559e"/>
      <stop offset=".6" stop-color="#8c63a6"/>
      <stop offset=".7" stop-color="#ac8abd"/>
      <stop offset=".9" stop-color="#dfc9e2"/>
      <stop offset=".9" stop-color="#e7d2e8"/>
    </linearGradient>
    <linearGradient id="linear-gradient-3" x1="278.7" y1="50.4" x2="359.2" y2="50.4" gradientTransform="translate(0 195.2) scale(1 -1)" gradientUnits="userSpaceOnUse">
      <stop offset="0" stop-color="#eeecea"/>
      <stop offset="0" stop-color="#e0dddd"/>
      <stop offset="0" stop-color="#bcb6be"/>
      <stop offset="0" stop-color="#82778a"/>
      <stop offset="0" stop-color="#342044"/>
      <stop offset="0" stop-color="#2d193e"/>
      <stop offset="0" stop-color="#381e4c"/>
      <stop offset=".2" stop-color="#542e73"/>
      <stop offset=".3" stop-color="#68388d"/>
      <stop offset=".5" stop-color="#80559e"/>
      <stop offset=".6" stop-color="#8c63a6"/>
      <stop offset=".7" stop-color="#ac8abd"/>
      <stop offset=".9" stop-color="#dfc9e2"/>
      <stop offset=".9" stop-color="#e7d2e8"/>
    </linearGradient>
    <linearGradient id="linear-gradient-4" x1="96.9" y1="54.4" x2="144.4" y2="54.4" gradientTransform="translate(0 195.2) scale(1 -1)" gradientUnits="userSpaceOnUse">
      <stop offset="0" stop-color="#eeecea"/>
      <stop offset="0" stop-color="#e0dddd"/>
      <stop offset="0" stop-color="#bcb6be"/>
      <stop offset="0" stop-color="#82778a"/>
      <stop offset="0" stop-color="#342044"/>
      <stop offset="0" stop-color="#2d193e"/>
      <stop offset="0" stop-color="#381e4c"/>
      <stop offset=".2" stop-color="#542e73"/>
      <stop offset=".3" stop-color="#68388d"/>
      <stop offset=".5" stop-color="#80559e"/>
      <stop offset=".6" stop-color="#8c63a6"/>
      <stop offset=".7" stop-color="#ac8abd"/>
      <stop offset=".9" stop-color="#dfc9e2"/>
      <stop offset=".9" stop-color="#e7d2e8"/>
    </linearGradient>
    <linearGradient id="linear-gradient-5" x1="214.9" y1="52.5" x2="262.2" y2="52.5" gradientTransform="translate(0 195.2) scale(1 -1)" gradientUnits="userSpaceOnUse">
      <stop offset="0" stop-color="#eeecea"/>
      <stop offset="0" stop-color="#e0dddd"/>
      <stop offset="0" stop-color="#bcb6be"/>
      <stop offset="0" stop-color="#82778a"/>
      <stop offset="0" stop-color="#342044"/>
      <stop offset="0" stop-color="#2d193e"/>
      <stop offset="0" stop-color="#381e4c"/>
      <stop offset=".2" stop-color="#542e73"/>
      <stop offset=".3" stop-color="#68388d"/>
      <stop offset=".5" stop-color="#80559e"/>
      <stop offset=".6" stop-color="#8c63a6"/>
      <stop offset=".7" stop-color="#ac8abd"/>
      <stop offset=".9" stop-color="#dfc9e2"/>
      <stop offset=".9" stop-color="#e7d2e8"/>
    </linearGradient>
  </defs>
  <!-- Generator: Adobe Illustrator 28.7.1, SVG Export Plug-In . SVG Version: 1.2.0 Build 142)  -->
  <g>
    <g id="Layer_1">
      <g id="Capa_1">
        <g>
          <path class="cls-5" d="M96.4,138.3c-1.5,7.5-2.9,15.1-2.8,22.7,0,10.1,6.6,16.9,16.4,19.1,24.1,5.3,43.3-10.3,44.1-36,.5-15.8-3.7-30.7-9-45.5-5.1-14.2-11.2-28.3-14-43-4.9-25.7,15.1-51.3,41.2-55.1,26.4-3.8,51.5,14.5,56,40.5,2,11.6-.6,22.4-4.4,33.2-5.7,16.2-11.9,32.2-16.6,48.6-3.2,11.1-3.4,22.7.3,34.1,6.2,19.1,24.7,28.7,43.9,22.5,8.8-2.8,14.6-9.3,14.2-18.9-.3-9.2-2.1-18.4-4.3-27.3-3-12.2-6.7-24.2-5.4-37,1.2-11.6,6.2-21,17.2-26,9.6-4.3,19-2.9,27.5,3.4,7,5.2,10.8,12.4,11.2,21.2.2,4.1-1.6,6.9-5.7,7.2-4.1.3-6-2.3-6.6-6.4-1.4-10.4-7.3-16.2-16.1-16.4-7.9-.1-15.7,6.3-16.3,15.8-.6,8.7.5,17.6,1.9,26.3,1.5,9.3,4.8,18.4,6.2,27.8,2,13.4.3,26.4-12,34.7-13.1,8.8-27.6,9.1-41.6,2.6-19.2-8.9-25.7-25.9-26-45.7-.2-16.4,4.3-31.9,10.1-47.1,4.2-11.1,9-22.2,11.9-33.6,5.6-21.9-7.1-42.8-28.5-48.2-20.5-5.2-41.4,6.7-47.5,27.3-3.2,10.6-1.1,20.8,2.5,30.9,4.7,12.9,10.1,25.6,14.2,38.6,5,16,7.5,32.3,2.9,49-6.8,24.6-29.3,37.8-53.9,31.7-15.9-4-25.3-16.4-23.9-33.9.8-10.4,4.3-20.5,5.9-30.8,1.5-9.7,2.8-19.5,2.6-29.3-.1-6.8-4.4-12.5-11.5-15-5.9-2-11.6-.7-15.6,3.8-2.6,3-4.3,7.2-5.2,11.1-.9,4.1-2.2,7.2-6.7,7-4.9-.3-6-3.9-5.8-8.2.6-11.7,10-22.6,21.9-25.3,9.9-2.3,20.1,1,26.4,8.6s3.5,5.4,4.5,8.5,0,.1,0,.2c3.3,10.2,3.7,21.2,1.2,31.6l-4.9,20.7Z"/>
          <path class="cls-1" d="M78.8,155.5c-6.8-4.8-12.9-9.3-19.2-13.7-9.4-6.5-19.3-12-31.2-11.6-11.9.4-19.5,12.1-14.4,22,2.2,4.2,5.4,7.1,10.5,6.6,4.3-.4,7.5,1.2,7.8,5.6.3,4.8-3.2,6.5-7.5,6.9-15.1,1.4-27.9-14.9-24.4-31,2.8-12.7,13.7-21.9,26.8-22.2,12.6-.4,23.7,4.3,33.9,11.2,4.2,2.8,8.2,5.9,12.2,9,5.3,4,7,9.7,5.3,17.2h0Z"/>
          <path class="cls-3" d="M280.5,155.2c-3-10.7-3-10.6,4.6-16.5,12.2-9.5,24.5-18.6,40.6-20.3,16.8-1.8,30.4,7.7,33,23.3,2.3,13.4-6.6,27.1-19.4,29.2-2.7.5-6,.6-8.2-.6-2-1.1-4.4-4.3-4.1-6.3.2-2,3.3-4.7,5.5-5.1,10-1.7,14.8-6,14.2-14.1-.6-8.3-7.5-14.6-16.4-14.8-10.1-.2-19,3.7-27.1,9.1-7.5,5-14.9,10.4-22.7,15.9h0Z"/>
          <path class="cls-2" d="M97.4,154.6c34,8.8,47.5-3.7,43.9-40,5.3,12.6,3.3,32-2.4,40.4-8.3,12.4-20.7,12.8-33.5,11.4-8.8-1-9.4-2.1-8.1-11.8h0Z"/>
          <path class="cls-4" d="M261.7,154.3c1.3,9.9.8,10.9-8.1,12-5,.6-10.1.7-15.1,0-13.4-1.7-21.7-11.3-23.4-27.5-.7-6.7-.1-13.5.9-20.3,1.1,12.2.6,24.9,10.9,33.8,10.6,9.2,22.6,6,34.8,1.9h0Z"/>
        </g>
      </g>
    </g>
  </g>
</svg>