<?xml version="1.0" encoding="UTF-8"?>
<svg xmlns="http://www.w3.org/2000/svg" xmlns:xlink="http://www.w3.org/1999/xlink" width="885px" height="471px" viewBox="0 0 885 471" version="1.1">
<defs>
<linearGradient id="linear0" gradientUnits="userSpaceOnUse" x1="47.200001" y1="99.599998" x2="311.899994" y2="99.599998" gradientTransform="matrix(2.463808,0,0,-2.464595,0,481.096923)">
<stop offset="0" style="stop-color:rgb(93.333333%,92.54902%,91.764706%);stop-opacity:1;"/>
<stop offset="0" style="stop-color:rgb(87.843137%,86.666667%,86.666667%);stop-opacity:1;"/>
<stop offset="0" style="stop-color:rgb(73.72549%,71.372549%,74.509804%);stop-opacity:1;"/>
<stop offset="0" style="stop-color:rgb(50.980392%,46.666667%,54.117647%);stop-opacity:1;"/>
<stop offset="0" style="stop-color:rgb(20.392157%,12.54902%,26.666667%);stop-opacity:1;"/>
<stop offset="0" style="stop-color:rgb(17.647059%,9.803922%,24.313725%);stop-opacity:1;"/>
<stop offset="0" style="stop-color:rgb(21.960784%,11.764706%,29.803922%);stop-opacity:1;"/>
<stop offset="0.2" style="stop-color:rgb(32.941176%,18.039216%,45.098039%);stop-opacity:1;"/>
<stop offset="0.3" style="stop-color:rgb(40.784314%,21.960784%,55.294118%);stop-opacity:1;"/>
<stop offset="0.5" style="stop-color:rgb(50.196078%,33.333333%,61.960784%);stop-opacity:1;"/>
<stop offset="0.6" style="stop-color:rgb(54.901961%,38.823529%,65.098039%);stop-opacity:1;"/>
<stop offset="0.7" style="stop-color:rgb(67.45098%,54.117647%,74.117647%);stop-opacity:1;"/>
<stop offset="0.9" style="stop-color:rgb(87.45098%,78.823529%,88.627451%);stop-opacity:1;"/>
<stop offset="0.9" style="stop-color:rgb(90.588235%,82.352941%,90.980392%);stop-opacity:1;"/>
</linearGradient>
<linearGradient id="linear1" gradientUnits="userSpaceOnUse" x1="0" y1="50.400002" x2="80.400002" y2="50.400002" gradientTransform="matrix(2.463808,0,0,-2.464595,0,481.096923)">
<stop offset="0" style="stop-color:rgb(93.333333%,92.54902%,91.764706%);stop-opacity:1;"/>
<stop offset="0" style="stop-color:rgb(87.843137%,86.666667%,86.666667%);stop-opacity:1;"/>
<stop offset="0" style="stop-color:rgb(73.72549%,71.372549%,74.509804%);stop-opacity:1;"/>
<stop offset="0" style="stop-color:rgb(50.980392%,46.666667%,54.117647%);stop-opacity:1;"/>
<stop offset="0" style="stop-color:rgb(20.392157%,12.54902%,26.666667%);stop-opacity:1;"/>
<stop offset="0" style="stop-color:rgb(17.647059%,9.803922%,24.313725%);stop-opacity:1;"/>
<stop offset="0" style="stop-color:rgb(21.960784%,11.764706%,29.803922%);stop-opacity:1;"/>
<stop offset="0.2" style="stop-color:rgb(32.941176%,18.039216%,45.098039%);stop-opacity:1;"/>
<stop offset="0.3" style="stop-color:rgb(40.784314%,21.960784%,55.294118%);stop-opacity:1;"/>
<stop offset="0.5" style="stop-color:rgb(50.196078%,33.333333%,61.960784%);stop-opacity:1;"/>
<stop offset="0.6" style="stop-color:rgb(54.901961%,38.823529%,65.098039%);stop-opacity:1;"/>
<stop offset="0.7" style="stop-color:rgb(67.45098%,54.117647%,74.117647%);stop-opacity:1;"/>
<stop offset="0.9" style="stop-color:rgb(87.45098%,78.823529%,88.627451%);stop-opacity:1;"/>
<stop offset="0.9" style="stop-color:rgb(90.588235%,82.352941%,90.980392%);stop-opacity:1;"/>
</linearGradient>
<linearGradient id="linear2" gradientUnits="userSpaceOnUse" x1="278.700012" y1="50.400002" x2="359.200012" y2="50.400002" gradientTransform="matrix(2.463808,0,0,-2.464595,0,481.096923)">
<stop offset="0" style="stop-color:rgb(93.333333%,92.54902%,91.764706%);stop-opacity:1;"/>
<stop offset="0" style="stop-color:rgb(87.843137%,86.666667%,86.666667%);stop-opacity:1;"/>
<stop offset="0" style="stop-color:rgb(73.72549%,71.372549%,74.509804%);stop-opacity:1;"/>
<stop offset="0" style="stop-color:rgb(50.980392%,46.666667%,54.117647%);stop-opacity:1;"/>
<stop offset="0" style="stop-color:rgb(20.392157%,12.54902%,26.666667%);stop-opacity:1;"/>
<stop offset="0" style="stop-color:rgb(17.647059%,9.803922%,24.313725%);stop-opacity:1;"/>
<stop offset="0" style="stop-color:rgb(21.960784%,11.764706%,29.803922%);stop-opacity:1;"/>
<stop offset="0.2" style="stop-color:rgb(32.941176%,18.039216%,45.098039%);stop-opacity:1;"/>
<stop offset="0.3" style="stop-color:rgb(40.784314%,21.960784%,55.294118%);stop-opacity:1;"/>
<stop offset="0.5" style="stop-color:rgb(50.196078%,33.333333%,61.960784%);stop-opacity:1;"/>
<stop offset="0.6" style="stop-color:rgb(54.901961%,38.823529%,65.098039%);stop-opacity:1;"/>
<stop offset="0.7" style="stop-color:rgb(67.45098%,54.117647%,74.117647%);stop-opacity:1;"/>
<stop offset="0.9" style="stop-color:rgb(87.45098%,78.823529%,88.627451%);stop-opacity:1;"/>
<stop offset="0.9" style="stop-color:rgb(90.588235%,82.352941%,90.980392%);stop-opacity:1;"/>
</linearGradient>
<linearGradient id="linear3" gradientUnits="userSpaceOnUse" x1="96.900002" y1="54.400002" x2="144.399994" y2="54.400002" gradientTransform="matrix(2.463808,0,0,-2.464595,0,481.096923)">
<stop offset="0" style="stop-color:rgb(93.333333%,92.54902%,91.764706%);stop-opacity:1;"/>
<stop offset="0" style="stop-color:rgb(87.843137%,86.666667%,86.666667%);stop-opacity:1;"/>
<stop offset="0" style="stop-color:rgb(73.72549%,71.372549%,74.509804%);stop-opacity:1;"/>
<stop offset="0" style="stop-color:rgb(50.980392%,46.666667%,54.117647%);stop-opacity:1;"/>
<stop offset="0" style="stop-color:rgb(20.392157%,12.54902%,26.666667%);stop-opacity:1;"/>
<stop offset="0" style="stop-color:rgb(17.647059%,9.803922%,24.313725%);stop-opacity:1;"/>
<stop offset="0" style="stop-color:rgb(21.960784%,11.764706%,29.803922%);stop-opacity:1;"/>
<stop offset="0.2" style="stop-color:rgb(32.941176%,18.039216%,45.098039%);stop-opacity:1;"/>
<stop offset="0.3" style="stop-color:rgb(40.784314%,21.960784%,55.294118%);stop-opacity:1;"/>
<stop offset="0.5" style="stop-color:rgb(50.196078%,33.333333%,61.960784%);stop-opacity:1;"/>
<stop offset="0.6" style="stop-color:rgb(54.901961%,38.823529%,65.098039%);stop-opacity:1;"/>
<stop offset="0.7" style="stop-color:rgb(67.45098%,54.117647%,74.117647%);stop-opacity:1;"/>
<stop offset="0.9" style="stop-color:rgb(87.45098%,78.823529%,88.627451%);stop-opacity:1;"/>
<stop offset="0.9" style="stop-color:rgb(90.588235%,82.352941%,90.980392%);stop-opacity:1;"/>
</linearGradient>
<linearGradient id="linear4" gradientUnits="userSpaceOnUse" x1="214.899994" y1="52.5" x2="262.200012" y2="52.5" gradientTransform="matrix(2.463808,0,0,-2.464595,0,481.096923)">
<stop offset="0" style="stop-color:rgb(93.333333%,92.54902%,91.764706%);stop-opacity:1;"/>
<stop offset="0" style="stop-color:rgb(87.843137%,86.666667%,86.666667%);stop-opacity:1;"/>
<stop offset="0" style="stop-color:rgb(73.72549%,71.372549%,74.509804%);stop-opacity:1;"/>
<stop offset="0" style="stop-color:rgb(50.980392%,46.666667%,54.117647%);stop-opacity:1;"/>
<stop offset="0" style="stop-color:rgb(20.392157%,12.54902%,26.666667%);stop-opacity:1;"/>
<stop offset="0" style="stop-color:rgb(17.647059%,9.803922%,24.313725%);stop-opacity:1;"/>
<stop offset="0" style="stop-color:rgb(21.960784%,11.764706%,29.803922%);stop-opacity:1;"/>
<stop offset="0.2" style="stop-color:rgb(32.941176%,18.039216%,45.098039%);stop-opacity:1;"/>
<stop offset="0.3" style="stop-color:rgb(40.784314%,21.960784%,55.294118%);stop-opacity:1;"/>
<stop offset="0.5" style="stop-color:rgb(50.196078%,33.333333%,61.960784%);stop-opacity:1;"/>
<stop offset="0.6" style="stop-color:rgb(54.901961%,38.823529%,65.098039%);stop-opacity:1;"/>
<stop offset="0.7" style="stop-color:rgb(67.45098%,54.117647%,74.117647%);stop-opacity:1;"/>
<stop offset="0.9" style="stop-color:rgb(87.45098%,78.823529%,88.627451%);stop-opacity:1;"/>
<stop offset="0.9" style="stop-color:rgb(90.588235%,82.352941%,90.980392%);stop-opacity:1;"/>
</linearGradient>
</defs>
<g id="surface1">
<path style=" stroke:none;fill-rule:nonzero;fill:url(#linear0);" d="M 237.511719 340.863281 C 233.816406 359.347656 230.367188 378.078125 230.613281 396.808594 C 230.613281 421.699219 246.875 438.460938 271.019531 443.882812 C 330.398438 456.945312 377.703125 418.496094 379.671875 355.15625 C 380.90625 316.214844 370.558594 279.492188 357.5 243.015625 C 344.933594 208.019531 329.902344 173.269531 323.003906 137.039062 C 310.933594 73.699219 360.207031 10.605469 424.515625 1.238281 C 489.558594 -8.125 551.398438 36.976562 562.488281 101.054688 C 567.414062 129.644531 561.007812 156.261719 551.648438 182.882812 C 537.601562 222.808594 522.328125 262.242188 510.746094 302.660156 C 502.863281 330.015625 502.371094 358.605469 511.488281 386.703125 C 526.761719 433.777344 572.34375 457.4375 619.648438 442.15625 C 641.328125 435.253906 655.621094 419.234375 654.632812 395.574219 C 653.894531 372.902344 649.460938 350.226562 644.039062 328.292969 C 636.648438 298.222656 627.53125 268.648438 630.734375 237.101562 C 633.691406 208.511719 646.011719 185.34375 673.113281 173.023438 C 696.765625 162.425781 719.925781 165.875 740.867188 181.402344 C 758.113281 194.21875 767.476562 211.964844 768.460938 233.652344 C 768.953125 243.757812 764.519531 250.65625 754.417969 251.398438 C 744.316406 252.136719 739.636719 245.726562 738.15625 235.625 C 734.707031 209.992188 720.171875 195.695312 698.488281 195.203125 C 679.027344 194.957031 659.808594 210.730469 658.328125 234.144531 C 656.851562 255.585938 659.5625 277.519531 663.011719 298.964844 C 666.707031 321.882812 674.835938 344.3125 678.285156 367.480469 C 683.214844 400.503906 679.027344 432.542969 648.722656 453 C 616.445312 474.6875 580.71875 475.429688 546.226562 459.410156 C 498.921875 437.472656 482.90625 395.574219 482.167969 346.777344 C 481.675781 306.355469 492.761719 268.15625 507.050781 230.695312 C 517.398438 203.335938 529.226562 175.980469 536.371094 147.882812 C 550.167969 93.910156 518.878906 42.398438 466.152344 29.089844 C 415.644531 16.273438 364.152344 45.601562 349.121094 96.375 C 341.238281 122.5 346.410156 147.636719 355.28125 172.53125 C 366.859375 204.324219 380.164062 235.625 390.265625 267.664062 C 402.585938 307.097656 408.746094 347.269531 397.414062 388.429688 C 380.660156 449.058594 325.222656 481.589844 264.613281 466.554688 C 225.4375 456.699219 202.277344 426.136719 205.726562 383.007812 C 207.699219 357.375 216.324219 332.480469 220.265625 307.097656 C 223.960938 283.191406 227.164062 259.035156 226.671875 234.882812 C 226.425781 218.125 215.828125 204.078125 198.335938 197.914062 C 183.800781 192.984375 169.757812 196.191406 159.902344 207.28125 C 153.496094 214.675781 149.308594 225.027344 147.089844 234.636719 C 144.871094 244.742188 141.667969 252.382812 130.582031 251.890625 C 118.507812 251.148438 115.800781 242.277344 116.292969 231.679688 C 117.769531 202.84375 140.929688 175.980469 170.25 169.324219 C 194.640625 163.65625 219.773438 171.789062 235.292969 190.519531 C 250.816406 209.253906 243.917969 203.828125 246.378906 211.46875 C 248.84375 219.109375 246.378906 211.714844 246.378906 211.964844 C 254.511719 237.101562 255.496094 264.210938 249.335938 289.84375 L 237.265625 340.863281 Z M 237.511719 340.863281 "/>
<path style=" stroke:none;fill-rule:nonzero;fill:url(#linear1);" d="M 194.148438 383.253906 C 177.394531 371.421875 162.363281 360.332031 146.84375 349.488281 C 123.683594 333.46875 99.292969 319.914062 69.972656 320.898438 C 40.652344 321.882812 21.929688 350.71875 34.492188 375.121094 C 39.914062 385.46875 47.796875 392.617188 60.363281 391.386719 C 70.957031 390.398438 78.84375 394.34375 79.582031 405.1875 C 80.320312 417.015625 71.695312 421.207031 61.101562 422.191406 C 23.898438 425.644531 -7.636719 385.46875 0.984375 345.789062 C 7.882812 314.492188 34.738281 291.816406 67.015625 291.078125 C 98.058594 290.089844 125.40625 301.675781 150.539062 318.679688 C 160.886719 325.582031 170.742188 333.222656 180.597656 340.863281 C 193.65625 350.71875 197.84375 364.769531 193.65625 383.253906 Z M 194.148438 383.253906 "/>
<path style=" stroke:none;fill-rule:nonzero;fill:url(#linear2);" d="M 691.097656 382.511719 C 683.707031 356.140625 683.707031 356.386719 702.433594 341.847656 C 732.488281 318.433594 762.796875 296.003906 802.460938 291.816406 C 843.855469 287.378906 877.363281 310.792969 883.769531 349.242188 C 889.433594 382.265625 867.507812 416.03125 835.96875 421.207031 C 829.316406 422.441406 821.1875 422.6875 815.765625 419.726562 C 810.839844 417.015625 804.925781 409.128906 805.664062 404.203125 C 806.15625 399.273438 813.796875 392.617188 819.214844 391.632812 C 843.855469 387.441406 855.679688 376.84375 854.203125 356.882812 C 852.722656 336.425781 835.722656 320.898438 813.796875 320.40625 C 788.910156 319.914062 766.984375 329.523438 747.027344 342.832031 C 728.546875 355.15625 710.316406 368.464844 691.097656 382.019531 Z M 691.097656 382.511719 "/>
<path style=" stroke:none;fill-rule:nonzero;fill:url(#linear3);" d="M 239.976562 381.035156 C 323.746094 402.722656 357.003906 371.914062 348.136719 282.449219 C 361.195312 313.503906 356.265625 361.316406 342.222656 382.019531 C 321.773438 412.582031 291.222656 413.566406 259.683594 410.117188 C 238.003906 407.652344 236.527344 404.941406 239.730469 381.035156 Z M 239.976562 381.035156 "/>
<path style=" stroke:none;fill-rule:nonzero;fill:url(#linear4);" d="M 644.777344 380.296875 C 647.980469 404.695312 646.75 407.160156 624.820312 409.871094 C 612.503906 411.347656 599.9375 411.59375 587.617188 409.871094 C 554.601562 405.679688 534.152344 382.019531 529.964844 342.09375 C 528.242188 325.582031 529.71875 308.820312 532.183594 292.0625 C 534.894531 322.128906 533.660156 353.429688 559.039062 375.367188 C 585.15625 398.039062 614.71875 390.152344 644.777344 380.046875 Z M 644.777344 380.296875 "/>
</g>
</svg>
